HIERARCHY
ROOT joint_0
{
	OFFSET 0.000000 0.000000 0.000000
	CHANNELS 6 Xposition Yposition Zposition Zrotation Yrotation Xrotation 
	JOINT joint_1
	{
		OFFSET 7.745728 2.152245 124.869995
		CHANNELS 3 Zrotation Yrotation Xrotation
		JOINT joint_2
		{
			OFFSET -6.359406 2.617477 113.975952
			CHANNELS 3 Zrotation Yrotation Xrotation
			JOINT joint_3
			{
				OFFSET -8.187927 3.340103 113.713013
				CHANNELS 3 Zrotation Yrotation Xrotation
				JOINT joint_4
				{
					OFFSET 2.859222 5.755905 159.680054
					CHANNELS 3 Zrotation Yrotation Xrotation
					JOINT joint_5
					{
						OFFSET 22.724274 2.598469 88.906982
						CHANNELS 3 Zrotation Yrotation Xrotation
						End Site
						{
							OFFSET 0.000000 0.000000 0.000000
						}
					}
				}
				JOINT joint_6
				{
					OFFSET 2.312134 -31.513222 90.723022
					CHANNELS 3 Zrotation Yrotation Xrotation
					JOINT joint_7
					{
						OFFSET -0.486389 -150.827950 -17.660034
						CHANNELS 3 Zrotation Yrotation Xrotation
						JOINT joint_8
						{
							OFFSET 15.633850 -16.961029 -297.395020
							CHANNELS 3 Zrotation Yrotation Xrotation
							JOINT joint_9
							{
								OFFSET 5.600098 1.609863 -262.782959
								CHANNELS 3 Zrotation Yrotation Xrotation
								End Site
								{
									OFFSET 0.000000 0.000000 0.000000
								}
							}
						}
					}
				}
				JOINT joint_10
				{
					OFFSET 1.012756 37.963039 88.243042
					CHANNELS 3 Zrotation Yrotation Xrotation
					JOINT joint_11
					{
						OFFSET -2.397430 150.471996 -20.492065
						CHANNELS 3 Zrotation Yrotation Xrotation
						JOINT joint_12
						{
							OFFSET -10.575745 12.779427 -297.765015
							CHANNELS 3 Zrotation Yrotation Xrotation
							JOINT joint_13
							{
								OFFSET 196.311081 2.689713 -176.286011
								CHANNELS 3 Zrotation Yrotation Xrotation
								End Site
								{
									OFFSET 0.000000 0.000000 0.000000
								}
							}
						}
					}
				}
			}
		}
	}
	JOINT joint_14
	{
		OFFSET 1.244965 -96.891136 -118.152039
		CHANNELS 3 Zrotation Yrotation Xrotation
		JOINT joint_15
		{
			OFFSET -2.982971 -16.401871 -443.439026
			CHANNELS 3 Zrotation Yrotation Xrotation
			JOINT joint_16
			{
				OFFSET -42.052063 -15.386002 -460.966980
				CHANNELS 3 Zrotation Yrotation Xrotation
				JOINT joint_17
				{
					OFFSET 177.916595 102.818184 -88.655001
					CHANNELS 3 Zrotation Yrotation Xrotation
					End Site
					{
						OFFSET 0.000000 0.000000 0.000000
					}
				}
			}
		}
	}
	JOINT joint_18
	{
		OFFSET 1.788635 96.476997 -118.463074
		CHANNELS 3 Zrotation Yrotation Xrotation
		JOINT joint_19
		{
			OFFSET -9.555542 8.093691 -443.574951
			CHANNELS 3 Zrotation Yrotation Xrotation
			JOINT joint_20
			{
				OFFSET -48.427551 9.415819 -460.500023
				CHANNELS 3 Zrotation Yrotation Xrotation
				JOINT joint_21
				{
					OFFSET 204.978119 20.223980 -87.523996
					CHANNELS 3 Zrotation Yrotation Xrotation
					End Site
					{
						OFFSET 0.000000 0.000000 0.000000
					}
				}
			}
		}
	}
}
MOTION
Frames: 7
Frame Time: 0.016667
-813.378296 -114.777924 1136.188965 -1.293698 -0.328376 0.093349 -0.141467 1.793243 0.181026 -0.116687 -0.381190 -0.135831 -0.124542 0.469477 0.098066 0.132392 -0.729011 -0.419068 0.000000 0.000000 0.000000 1.957886 -0.452872 4.650113 -0.535613 -0.117742 -6.233822 0.049080 -2.223865 2.616827 0.000000 0.000000 0.000000 -1.638851 -3.156327 -0.901227 -1.445663 -3.073702 1.616902 0.720160 48.302555 -2.887024 0.000000 0.000000 0.000000 -7.879776 -1.844240 0.089894 -7.997995 1.677772 -2.297357 -7.880615 -0.875463 -3.419616 0.000000 0.000000 0.000000 -5.525941 -0.824854 -0.585185 -5.449618 2.080881 -1.565168 -5.420106 1.196150 -2.425107 0.000000 0.000000 0.000000 
-811.723633 -115.116096 1136.608032 -1.192764 0.237237 0.071228 -0.077691 2.195089 0.178312 -0.045775 -0.465578 -0.166733 -0.055235 0.561666 0.117641 0.133947 -1.573725 -0.312462 0.000000 0.000000 0.000000 3.119501 0.084062 4.174614 -0.691129 0.578341 -5.990487 0.046495 -3.774425 3.285985 0.000000 0.000000 0.000000 -1.518050 -2.947395 -0.272143 -2.169938 -2.946297 1.140909 -0.036171 47.308870 -3.777393 0.000000 0.000000 0.000000 -7.901168 -2.365717 0.214857 -8.042107 1.668231 -2.309462 -7.923105 -0.796284 -3.487325 0.000000 0.000000 0.000000 -5.566664 -1.396237 -0.482051 -5.477478 2.125875 -1.578470 -5.448497 1.240528 -2.441733 0.000000 0.000000 0.000000 
-807.776611 -115.879913 1137.375000 -1.133671 1.112126 0.054631 -0.042836 1.571480 -0.317463 0.010524 -0.348231 -0.025853 -0.009289 0.430107 0.015198 0.098441 -2.000950 -0.116870 0.000000 0.000000 0.000000 4.772243 0.741586 3.970068 -0.708016 1.434654 -5.272261 0.030606 -3.722751 3.109428 0.000000 0.000000 0.000000 -2.271005 -2.288482 0.967744 -2.677169 -2.255914 0.285666 -0.572172 46.662332 -4.755605 0.000000 0.000000 0.000000 -7.919335 -2.977512 0.391593 -8.078981 1.397686 -2.285779 -7.957030 -0.507527 -3.672951 0.000000 0.000000 0.000000 -5.632382 -2.085630 -0.410271 -5.537820 2.011048 -1.416377 -5.480676 1.298925 -2.462064 0.000000 0.000000 0.000000 
-802.039612 -116.963127 1138.401001 -1.092938 2.266304 0.041370 -0.031256 0.201162 -1.188746 0.054607 -0.082093 0.247125 0.017675 0.126933 -0.177737 0.037053 -2.182488 0.146349 0.000000 0.000000 0.000000 6.983917 1.499959 3.983213 -0.608029 2.443584 -4.175902 0.025462 -2.484640 2.465787 0.000000 0.000000 0.000000 -3.659009 -1.251852 2.653000 -3.132808 -1.109850 -0.894129 -1.055631 46.175335 -5.945257 0.000000 0.000000 0.000000 -7.938138 -3.685520 0.617529 -8.114799 0.893428 -2.232883 -7.991241 -0.034359 -3.965851 0.000000 0.000000 0.000000 -5.721344 -2.902220 -0.360896 -5.628439 1.756479 -1.106942 -5.519209 1.385401 -2.488240 0.000000 0.000000 0.000000 
-795.399475 -118.168152 1139.854004 -1.048580 3.341837 0.028672 0.003334 -1.188703 -2.099217 0.123038 0.202069 0.521223 0.070920 -0.222802 -0.367671 -0.009707 -2.253267 0.333935 0.000000 0.000000 0.000000 8.963500 2.189094 3.923947 -0.494687 3.349807 -2.848054 0.025874 -1.365109 1.895714 0.000000 0.000000 0.000000 -4.961328 -0.265696 4.439721 -3.015422 0.022500 -2.447387 -1.045160 45.710249 -6.177444 0.000000 0.000000 0.000000 -7.953241 -4.435907 0.791245 -8.166015 0.726191 -2.156137 -8.027907 0.400480 -4.239588 0.000000 0.000000 0.000000 -5.820872 -3.722106 -0.229487 -5.722616 1.734254 -0.970357 -5.589142 1.500122 -2.529899 0.000000 0.000000 0.000000 
-788.534668 -119.456886 1142.035034 -0.967897 4.103330 -0.006766 0.077602 -2.143786 -2.805618 0.224997 0.405484 0.703449 0.164430 -0.514080 -0.500987 -0.020091 -2.236893 0.365493 0.000000 0.000000 0.000000 10.139251 2.721980 3.407833 -0.413272 4.000226 -1.133502 0.020200 -1.180520 1.341937 0.000000 0.000000 0.000000 -5.791222 0.364104 6.387983 -1.447102 0.857508 -4.721936 0.244773 45.489177 -4.118329 0.000000 0.000000 0.000000 -7.964674 -5.317536 0.857245 -8.262575 1.501869 -2.056907 -8.078392 0.626022 -4.403192 0.000000 0.000000 0.000000 -5.910322 -4.555952 0.128224 -5.783262 2.332294 -1.334421 -5.707598 1.634381 -2.592558 0.000000 0.000000 0.000000 
-781.124390 -120.903580 1144.881958 -0.856897 4.684160 -0.063944 0.172772 -2.926677 -3.432118 0.345206 0.571443 0.833061 0.280730 -0.788998 -0.603948 -0.009731 -2.091446 0.299782 0.000000 0.000000 0.000000 10.820044 3.160322 2.521049 -0.331453 4.491625 1.010113 0.009042 -1.425321 0.607749 0.000000 0.000000 0.000000 -6.429675 0.903417 8.597180 1.368599 1.678802 -7.613110 2.664888 45.292412 -0.259678 0.000000 0.000000 0.000000 -7.968220 -6.348789 0.850090 -8.394752 3.000295 -1.926927 -8.155240 0.762023 -4.531232 0.000000 0.000000 0.000000 -5.993657 -5.451137 0.673175 -5.822080 3.407142 -2.078267 -5.876225 1.823210 -2.680176 0.000000 0.000000 0.000000 
